<svg xmlns="http://www.w3.org/2000/svg" width="1041" height="1041" viewBox="0 0 1041 1041">
  <g id="_8ball" data-name="8ball" transform="translate(-6252 13212)">
    <rect id="frame" width="1041" height="1041" transform="translate(6252 -13212)" fill="#fff" opacity="0"/>
    <g id="part_3" data-name="part 3" transform="translate(6281 -13184)" fill="#6f7477">
      <path d="M 493 965.5 C 232.4625701904297 965.5 20.5 753.5374145507813 20.5 493 C 20.5 232.4625701904297 232.4625701904297 20.5 493 20.5 C 753.5374145507813 20.5 965.5 232.4625701904297 965.5 493 C 965.5 753.5374145507813 753.5374145507813 965.5 493 965.5 Z" stroke="none"/>
      <path d="M 493 41 C 243.766357421875 41 41 243.766357421875 41 493 C 41 742.233642578125 243.766357421875 945 493 945 C 742.233642578125 945 945 742.233642578125 945 493 C 945 243.766357421875 742.233642578125 41 493 41 M 493 0 C 765.2763671875 0 986 220.7236938476563 986 493 C 986 765.2763671875 765.2763671875 986 493 986 C 220.7236938476563 986 0 765.2763671875 0 493 C 0 220.7236938476563 220.7236938476563 0 493 0 Z" stroke="none"/>
    </g>
    <g id="part_2" data-name="part 2" transform="translate(6414 -13095)">
      <path d="M 358.5 696.5 C 172.126220703125 696.5 20.5 544.873779296875 20.5 358.5 C 20.5 172.126220703125 172.126220703125 20.5 358.5 20.5 C 544.873779296875 20.5 696.5 172.126220703125 696.5 358.5 C 696.5 544.873779296875 544.873779296875 696.5 358.5 696.5 Z" stroke="none"/>
      <path d="M 358.5 41 C 183.4298706054688 41 41 183.4298706054688 41 358.5 C 41 533.5701293945313 183.4298706054688 676 358.5 676 C 533.5701293945313 676 676 533.5701293945313 676 358.5 C 676 183.4298706054688 533.5701293945313 41 358.5 41 M 358.5 0 C 556.494140625 0 717 160.505859375 717 358.5 C 717 556.494140625 556.494140625 717 358.5 717 C 160.505859375 717 0 556.494140625 0 358.5 C 0 160.505859375 160.505859375 0 358.5 0 Z" stroke="none"/>
    </g>
    <path id="part_1" data-name="part 1" d="M280.758-233.324Q342.935-196.146,342.935-125q0,62.177-43.268,98.073T182.044,8.974q-75,0-117.944-35.9T21.153-125q0-71.151,61.536-108.329Q35.9-267.3,35.9-326.269q0-62.177,41.986-96.791t104.162-34.614q62.177,0,103.842,34.614t41.665,96.791Q327.551-266.656,280.758-233.324ZM223.709-360.242q-16.025-14.1-41.665-14.1t-41.665,14.1q-16.025,14.1-16.025,38.46T140.379-283q16.025,14.423,41.665,14.422T223.709-283q16.025-14.422,16.025-38.781T223.709-360.242ZM129.162-90.7q20.191,16.346,52.882,16.346T234.927-90.7q20.191-16.345,20.192-45.831,0-28.845-20.192-45.191t-52.883-16.346q-32.691,0-52.882,16.346T108.97-136.533Q108.97-107.047,129.162-90.7Z" transform="translate(6590 -12552)" fill="#6f7477"/>
  </g>
</svg>
