<svg xmlns="http://www.w3.org/2000/svg" width="1041" height="1041" viewBox="0 0 1041 1041">
  <g id="baguette" transform="translate(-6238 14556)">
    <rect id="frame" width="1041" height="1041" transform="translate(6238 -14556)" fill="#fff" opacity="0"/>
    <path id="part_2" data-name="part 2" d="M800.492,0A192.718,192.718,0,0,0,663.313,56.814l-62.755,62.755C656.553,152.82,725.649,220,706.133,253.9c0,0-82.019-52.215-175.435-64.469L446.93,273.2c56,33.251,125.091,100.429,105.575,134.329,0,0-82.019-52.215-175.434-64.469L293.3,426.824c56,33.251,125.091,100.429,105.575,134.333,0,0-82.019-52.215-175.438-64.469l-83.764,83.764c56,33.251,125.088,100.429,105.569,134.333,0,0-82.019-52.215-175.435-64.469l-13,13A192.724,192.724,0,0,0,0,800.492C0,907.474,87.011,994.485,193.993,994.485a192.719,192.719,0,0,0,137.179-56.814l606.5-606.5a192.718,192.718,0,0,0,56.814-137.179C994.485,87.011,907.474,0,800.492,0Z" transform="translate(7256.02 -13538.299) rotate(180)" stroke="#000" stroke-width="41"/>
    <path id="part_1" data-name="part 1" d="M800.492,0A192.718,192.718,0,0,0,663.313,56.814l-62.755,62.755C656.553,152.82,725.649,220,706.133,253.9c0,0-82.019-52.215-175.435-64.469L446.93,273.2c56,33.251,125.091,100.429,105.575,134.329,0,0-82.019-52.215-175.435-64.469L293.3,426.824c56,33.251,125.091,100.429,105.575,134.333,0,0-82.019-52.215-175.438-64.469l-83.764,83.764c56,33.251,125.088,100.429,105.569,134.333,0,0-82.019-52.215-175.435-64.469l-13,13A192.724,192.724,0,0,0,0,800.492C0,907.474,87.011,994.485,193.993,994.485a192.719,192.719,0,0,0,137.179-56.814l606.5-606.5a192.718,192.718,0,0,0,56.814-137.179C994.485,87.011,907.474,0,800.492,0Z" transform="translate(6261.535 -14532.785)" fill="#a84d32" stroke="#000" stroke-width="41"/>
  </g>
</svg>
