<svg xmlns="http://www.w3.org/2000/svg" width="1041" height="1041" viewBox="0 0 1041 1041">
  <g id="basket" transform="translate(-6252 13212)">
    <rect id="frame" width="1041" height="1041" transform="translate(6252 -13212)" fill="#fff" opacity="0"/>
    <path id="basket-2" data-name="basket" d="M726.865,315.371l-196-293.547C522.367,9.295,508.048,3.03,493.728,3.03S465.09,9.295,456.587,22.272l-196,293.1H46.248A44.88,44.88,0,0,0,1.5,360.119,37.689,37.689,0,0,0,3.29,372.2L125.6,818.8c10.292,37.588,36.1,33.549,77.27,33.549H784.59c41.168,0,63.244,4.04,73.984-33.549l126.04-446.6,1.342-12.082a44.88,44.88,0,0,0-44.748-44.748Zm-367.381,0L493.728,118.48,627.972,315.371Z" transform="translate(6279.1 -13118.766)" fill="#f05d05" stroke="#000" stroke-width="41"/>
  </g>
</svg>
