<svg xmlns="http://www.w3.org/2000/svg" width="1041" height="1041" viewBox="0 0 1041 1041">
  <g id="bell" transform="translate(-3210 13229)">
    <rect id="frame" width="1041" height="1041" transform="translate(3210 -13229)" fill="#fff" opacity="0"/>
    <path id="bell-2" data-name="bell" d="M311.75,913.951,560.141,896.59a124.848,124.848,0,0,1-5.928,49.064,126.277,126.277,0,0,1-84.3,79.49,109.063,109.063,0,0,1-24.665,4.219q-4.455.311-8.846.31C371.33,1029.669,316.915,979.242,311.75,913.951ZM11.733,812.2l4.285-48.962,106.544-89.358,21.429-244.813C157.191,278.264,248.011,159.9,391.515,138.9l2.914-33.295a73.76,73.76,0,0,1,146.958,12.85l-2.914,33.295C675.66,197.3,744.982,330.158,731.825,480.473L710.4,725.286l89.4,106.493-4.286,48.963ZM781.3,452.92c5.6-116.041-43.447-223.3-124.783-295.658l68.388-55.751c95.709,90.594,151.612,220.577,143.5,360.559ZM0,370.841C20.745,232.186,102.463,116.66,215.361,47.981l55.732,68.79C175.612,170.556,105.764,265.323,87.1,379.991Z" transform="translate(3296.281 -13242.756)" fill="#ffd800" stroke="#000" stroke-width="41"/>
  </g>
</svg>
