<svg xmlns="http://www.w3.org/2000/svg" width="1058.746" height="1041" viewBox="0 0 1058.746 1041">
  <g id="broken_heart" data-name="broken heart" transform="translate(-6242.811 13212)">
    <rect id="frame" width="1041" height="1041" transform="translate(6252 -13212)" fill="#fff" opacity="0"/>
    <path id="part_2" data-name="part 2" d="M918.885,63.134C809.965-29.686,647.977-12.991,548,90.165l-39.156,40.348L469.69,90.165C369.913-12.991,207.726-29.686,98.807,63.134-26.014,169.668-32.573,360.874,79.129,476.353l384.6,397.12a62.311,62.311,0,0,0,90.038,0l384.6-397.12c111.9-115.479,105.342-306.684-19.478-413.219Z" transform="translate(6263.322 -13129.246)" stroke="#000" stroke-width="41"/>
    <path id="part_1" data-name="part 1" d="M941.434,85.3l-4.77-4.968C845.246-13.076,702.157-22.417,599.61,50.916l68.166,205.491L476.991,383.6l95.392,254.38L286.206,351.8,476.991,224.61,420.153,52.7C317.408-22.417,172.928-13.673,80.913,80.527l-4.77,4.77C-20.64,184.267-24.813,341.863,61.636,447.391L483.152,881.825a35.409,35.409,0,0,0,51.075,0L955.941,447.193c86.449-105.329,82.276-262.926-14.508-361.9Z" transform="translate(6263.473 -13129.25)" fill="#6a21ff" stroke="#000" stroke-width="41"/>
  </g>
</svg>
