<svg xmlns="http://www.w3.org/2000/svg" width="1041" height="1043.462" viewBox="0 0 1041 1043.462">
  <g id="brush" transform="translate(-6259 13205)">
    <rect id="frame" width="1041" height="1041" transform="translate(6259 -13205)" fill="#fff" opacity="0"/>
    <path id="brush-2" data-name="brush" d="M-11802.488,10820.137c-2.414-27.6,7.537-54.541,23.546-75.829,299.894-401.25,304.316-440.659,402.177-449.22,24.945-2.185,49.239,1.653,71.852,9.729l106.987,107.723c4.426,12.841,7.849,26.173,9.085,40.282,9.893,113.082-67.16,185.87-433.3,425.3-24.951,15.725-52.132,30.063-81.518,32.634q-3.813.333-7.55.331C-11760.237,10911.094-11798.228,10868.844-11802.488,10820.137Zm664.421-430.3-147.548-148.553c-1.693-73.455,20.329-142.18,116.154-188.469a27.894,27.894,0,0,0,15.848-28.153c-1.771-20.226-57.62-78.357-71.343-95.118,149.935-13.1,287.756,44.428,302.1,208.418,12.083,138.115-59.3,240.017-198.436,252.19-1.437.126-2.865.174-4.287.174C-11129.757,10390.325-11133.886,10389.911-11138.067,10389.836Z" transform="translate(18147.611 -23093.129)" fill="#0dc5a0" stroke="#000" stroke-width="41"/>
  </g>
</svg>
