<svg xmlns="http://www.w3.org/2000/svg" width="1041" height="1041" viewBox="0 0 1041 1041">
  <g id="checked_box" data-name="checked box" transform="translate(-2215 5982.957)">
    <path id="frame" d="M0,0H1041V1041H0Z" transform="translate(2215 -5982.957)" fill="#fff" opacity="0"/>
    <g id="part_2" data-name="part 2" transform="translate(2243 -5954.958)" fill="#0dc5a0">
      <path d="M 493 965.5 C 232.4625701904297 965.5 20.5 753.5374145507813 20.5 493 C 20.5 232.4625701904297 232.4625701904297 20.5 493 20.5 C 753.5374145507813 20.5 965.5 232.4625701904297 965.5 493 C 965.5 753.5374145507813 753.5374145507813 965.5 493 965.5 Z" stroke="none"/>
      <path d="M 493 41 C 243.766357421875 41 41 243.766357421875 41 493 C 41 742.233642578125 243.766357421875 945 493 945 C 742.233642578125 945 945 742.233642578125 945 493 C 945 243.766357421875 742.233642578125 41 493 41 M 493 0 C 765.2763671875 0 986 220.7236938476563 986 493 C 986 765.2763671875 765.2763671875 986 493 986 C 220.7236938476563 986 0 765.2763671875 0 493 C 0 220.7236938476563 220.7236938476563 0 493 0 Z" stroke="none"/>
    </g>
    <path id="part_1" data-name="part 1" d="M569.237.042,252.832,318.78,105.489,170.347.02,276.593,252.609,531.049,674.482,106.065Z" transform="translate(2364.707 -5678.368) rotate(-8)" stroke="#000" stroke-linejoin="round" stroke-width="23"/>
  </g>
</svg>
