<svg xmlns="http://www.w3.org/2000/svg" width="1041" height="1041" viewBox="0 0 1041 1041">
  <g id="dislike" transform="translate(-1629 14741)">
    <rect id="frame" width="1041" height="1041" transform="translate(1629 -14741)" fill="#fff" opacity="0"/>
    <path id="dislike-2" data-name="dislike" d="M359.26,814.083c-12.325-12.932-20.336-30.174-20.336-49.265l1.232-14.779,40.671-195.828H61.623A61.783,61.783,0,0,1,0,492.629V415.653a89.776,89.776,0,0,1,6.779-33.87L146.046,56.02C160.219,23.381,192.879-.02,231.085-.02H647.038a92.28,92.28,0,0,1,92.435,92.372V492.629a92.665,92.665,0,0,1-27.114,65.276L407.942,862.116ZM876.9,528.414a64.5,64.5,0,0,1-64.5-64.5V64.117a64.5,64.5,0,0,1,64.5-64.5h46.751a64.5,64.5,0,0,1,64.5,64.5v399.8a64.5,64.5,0,0,1-64.5,64.5Z" transform="translate(1655.349 -14651.117)" fill="#e20000" stroke="#000" stroke-width="41"/>
  </g>
</svg>
