<svg xmlns="http://www.w3.org/2000/svg" width="1041" height="1041" viewBox="0 0 1041 1041">
  <g id="information" transform="translate(-6252 13212)">
    <rect id="frame" width="1041" height="1041" transform="translate(6252 -13212)" fill="#fff" opacity="0"/>
    <g id="part_3" data-name="part 3" transform="translate(6280 -13185)" fill="#a2a2a2">
      <path d="M 493 965.5 C 232.4625701904297 965.5 20.5 753.5374145507813 20.5 493 C 20.5 232.4625701904297 232.4625701904297 20.5 493 20.5 C 753.5374145507813 20.5 965.5 232.4625701904297 965.5 493 C 965.5 753.5374145507813 753.5374145507813 965.5 493 965.5 Z" stroke="none"/>
      <path d="M 493 41 C 243.766357421875 41 41 243.766357421875 41 493 C 41 742.233642578125 243.766357421875 945 493 945 C 742.233642578125 945 945 742.233642578125 945 493 C 945 243.766357421875 742.233642578125 41 493 41 M 493 0 C 765.2763671875 0 986 220.7236938476563 986 493 C 986 765.2763671875 765.2763671875 986 493 986 C 220.7236938476563 986 0 765.2763671875 0 493 C 0 220.7236938476563 220.7236938476563 0 493 0 Z" stroke="none"/>
    </g>
    <g id="part_2" data-name="part 2" transform="translate(6396 -13068)">
      <path d="M 377 733.5 C 180.4252166748047 733.5 20.5 573.5747680664063 20.5 377 C 20.5 180.4252166748047 180.4252166748047 20.5 377 20.5 C 573.5747680664063 20.5 733.5 180.4252166748047 733.5 377 C 733.5 573.5747680664063 573.5747680664063 733.5 377 733.5 Z" stroke="none"/>
      <path d="M 377 41 C 191.7289428710938 41 41 191.7289428710938 41 377 C 41 562.2710571289063 191.7289428710938 713 377 713 C 562.2710571289063 713 713 562.2710571289063 713 377 C 713 191.7289428710938 562.2710571289063 41 377 41 M 377 0 C 585.2113037109375 0 754 168.7886962890625 754 377 C 754 585.2113037109375 585.2113037109375 754 377 754 C 168.7886962890625 754 0 585.2113037109375 0 377 C 0 168.7886962890625 168.7886962890625 0 377 0 Z" stroke="none"/>
    </g>
    <path id="part_1" data-name="part 1" d="M104.653-465.174c33.479,0,60.581-26.3,60.581-59.784s-27.1-59.784-60.581-59.784c-32.682,0-60.581,26.3-60.581,59.784S71.971-465.174,104.653-465.174ZM53.637,7.515H155.668V-394.231H53.637Z" transform="translate(6668.231 -12420.758)" fill="#a2a2a2"/>
  </g>
</svg>
