<svg xmlns="http://www.w3.org/2000/svg" width="1041" height="1041" viewBox="0 0 1041 1041">
  <g id="like" transform="translate(-3434 14255)">
    <rect id="frame" width="1041" height="1041" transform="translate(3434 -14255)" fill="#fff" opacity="0"/>
    <path id="like-2" data-name="like" d="M69,858.272a64.5,64.5,0,0,1-64.5-64.5V396.434a64.5,64.5,0,0,1,64.5-64.5h45.681a64.5,64.5,0,0,1,64.5,64.5V793.771a64.5,64.5,0,0,1-64.5,64.5Zm274.251-.147a91.783,91.783,0,0,1-91.871-91.941V367.768A92.3,92.3,0,0,1,278.329,302.8L580.891,0l48.386,48.423c12.25,12.872,20.211,30.035,20.211,49.036l-1.225,14.1L607.84,306.473H925.1a61.45,61.45,0,0,1,61.247,61.294v76.619a89.478,89.478,0,0,1-6.736,33.711L841.192,802.347c-14.087,32.486-46.548,55.778-84.521,55.778Z" transform="translate(3459 -14163.771)" fill="#0dc5a0" stroke="#000" stroke-width="41"/>
  </g>
</svg>
