<svg xmlns="http://www.w3.org/2000/svg" width="1041" height="1041" viewBox="0 0 1041 1041">
  <g id="loop" transform="translate(-6252 13212)">
    <rect id="frame" width="1041" height="1041" transform="translate(6252 -13212)" fill="#fff" opacity="0"/>
    <g id="loop-2" data-name="loop" transform="translate(-740.285 -20853.588)" fill="#a2a2a2">
      <path d="M 7962.99951171875 8602.0703125 L 7928.00390625 8567.0751953125 L 7825.03564453125 8464.107421875 C 7806.962890625 8480.6630859375 7787.62060546875 8495.7724609375 7767.33154296875 8509.171875 C 7742.04638671875 8525.873046875 7714.98486328125 8540.1181640625 7686.89990234375 8551.51171875 C 7659.337890625 8562.6943359375 7630.5166015625 8571.2412109375 7601.236328125 8576.9150390625 C 7572.234375 8582.5302734375 7542.5390625 8585.376953125 7512.97265625 8585.376953125 C 7483.4052734375 8585.376953125 7453.7099609375 8582.5302734375 7424.71142578125 8576.9150390625 C 7395.42822265625 8571.2412109375 7366.60595703125 8562.6943359375 7339.04345703125 8551.51171875 C 7310.96435546875 8540.12109375 7283.90283203125 8525.8759765625 7258.611328125 8509.1708984375 C 7232.67431640625 8492.0419921875 7208.27587890625 8472.1103515625 7186.0947265625 8449.9296875 C 7154.7548828125 8418.5888671875 7128.2119140625 8383.0361328125 7107.20361328125 8344.259765625 C 7086.9873046875 8306.9443359375 7072.0009765625 8266.8701171875 7062.66064453125 8225.1494140625 L 7057.06884765625 8200.1708984375 L 7082.66552734375 8200.1708984375 L 7196.68603515625 8200.1708984375 L 7211.9853515625 8200.1708984375 L 7216.33837890625 8214.837890625 C 7230.46728515625 8262.4384765625 7257.0400390625 8306.7021484375 7293.18310546875 8342.84375 C 7351.81982421875 8401.482421875 7429.8759765625 8433.775390625 7512.9736328125 8433.775390625 C 7589.189453125 8433.775390625 7661.1611328125 8406.6123046875 7717.80029296875 8356.87109375 L 7615.6201171875 8254.6904296875 L 7580.62451171875 8219.6943359375 L 7630.11572265625 8219.6943359375 L 7942.49951171875 8219.6943359375 L 7962.99951171875 8219.6943359375 L 7962.99951171875 8240.1943359375 L 7962.99951171875 8552.5791015625 L 7962.99951171875 8602.0703125 Z M 7968.87451171875 8124.1396484375 L 7943.27783203125 8124.1396484375 L 7829.2607421875 8124.1396484375 L 7813.962890625 8124.1396484375 L 7809.60888671875 8109.474609375 C 7795.4755859375 8061.8720703125 7768.9033203125 8017.609375 7732.7646484375 7981.47119140625 C 7674.1279296875 7922.83251953125 7596.0712890625 7890.5390625 7512.9736328125 7890.5390625 C 7436.75927734375 7890.5390625 7364.78759765625 7917.70263671875 7308.1474609375 7967.4443359375 L 7410.32421875 8069.62060546875 L 7445.3203125 8104.6162109375 L 7395.82861328125 8104.6162109375 L 7083.4453125 8104.6162109375 L 7062.9453125 8104.6162109375 L 7062.9453125 8084.1162109375 L 7062.9453125 7771.736328125 L 7062.9453125 7722.24609375 L 7097.94091796875 7757.24072265625 L 7200.908203125 7860.20458984375 C 7218.98046875 7843.65087890625 7238.322265625 7828.54150390625 7258.611328125 7815.140625 C 7283.90087890625 7798.43994140625 7310.9609375 7784.19482421875 7339.0419921875 7772.79931640625 C 7366.6103515625 7761.6171875 7395.43212890625 7753.07177734375 7424.708984375 7747.39892578125 C 7453.70166015625 7741.783203125 7483.3974609375 7738.93603515625 7512.97265625 7738.93603515625 C 7542.54638671875 7738.93603515625 7572.2421875 7741.783203125 7601.23486328125 7747.39892578125 C 7630.50634765625 7753.06982421875 7659.32763671875 7761.615234375 7686.89794921875 7772.79833984375 C 7714.97119140625 7784.18798828125 7742.0322265625 7798.43359375 7767.33056640625 7815.13916015625 C 7793.27392578125 7832.27490234375 7817.671875 7852.20654296875 7839.8486328125 7874.3818359375 C 7871.18603515625 7905.71923828125 7897.72900390625 7941.271484375 7918.73974609375 7980.0517578125 C 7938.95556640625 8017.3642578125 7953.9423828125 8057.4384765625 7963.28271484375 8099.1611328125 L 7968.87451171875 8124.1396484375 Z" stroke="none"/>
      <path d="M 7512.97265625 8564.876953125 C 7541.2373046875 8564.876953125 7569.62158203125 8562.1552734375 7597.33642578125 8556.7890625 C 7625.31640625 8551.3671875 7652.85791015625 8543.2001953125 7679.193359375 8532.515625 C 7706.01953125 8521.6328125 7731.873046875 8508.0244140625 7756.0341796875 8492.0654296875 C 7780.82763671875 8475.69140625 7804.15087890625 8456.6376953125 7825.35302734375 8435.43359375 L 7942.49951171875 8552.5791015625 L 7942.49951171875 8240.1943359375 L 7630.11572265625 8240.1943359375 L 7747.26025390625 8357.33984375 C 7684.75146484375 8419.8505859375 7601.5458984375 8454.275390625 7512.9736328125 8454.275390625 C 7424.40087890625 8454.275390625 7341.19677734375 8419.8505859375 7278.6875 8357.33984375 C 7240.13671875 8318.791015625 7211.78173828125 8271.529296875 7196.68603515625 8220.6708984375 L 7082.66552734375 8220.6708984375 C 7091.5927734375 8260.5478515625 7105.91357421875 8298.84375 7125.228515625 8334.494140625 C 7145.29296875 8371.529296875 7170.6474609375 8405.490234375 7200.59033203125 8435.43359375 C 7221.79150390625 8456.634765625 7245.11376953125 8475.6904296875 7269.90966796875 8492.0654296875 C 7294.0703125 8508.0234375 7319.92236328125 8521.6328125 7346.75048828125 8532.515625 C 7373.0859375 8543.2001953125 7400.62744140625 8551.3671875 7428.6083984375 8556.7890625 C 7456.32275390625 8562.1552734375 7484.70654296875 8564.876953125 7512.97265625 8564.876953125 M 7943.28076171875 8103.6416015625 L 7943.27783203125 8103.6396484375 L 7943.28076171875 8103.6416015625 M 7943.27783203125 8103.6396484375 C 7934.35009765625 8063.7607421875 7920.02978515625 8025.4658203125 7900.71533203125 7989.8173828125 C 7880.64892578125 7952.7802734375 7855.2939453125 7918.818359375 7825.35302734375 7888.8779296875 C 7804.14892578125 7867.6748046875 7780.82763671875 7848.6220703125 7756.0341796875 7832.24609375 C 7731.87109375 7816.2900390625 7706.01708984375 7802.67822265625 7679.1923828125 7791.794921875 C 7652.85546875 7781.1123046875 7625.31591796875 7772.9453125 7597.33642578125 7767.52490234375 C 7569.6240234375 7762.1572265625 7541.240234375 7759.43603515625 7512.97265625 7759.43603515625 C 7484.7041015625 7759.43603515625 7456.31982421875 7762.1572265625 7428.6083984375 7767.52490234375 C 7400.62744140625 7772.9462890625 7373.0869140625 7781.1123046875 7346.75048828125 7791.794921875 C 7319.92431640625 7802.68115234375 7294.07177734375 7816.2900390625 7269.90966796875 7832.24609375 C 7245.1162109375 7848.6220703125 7221.79345703125 7867.6748046875 7200.59033203125 7888.8779296875 L 7083.4453125 7771.736328125 L 7083.4453125 8084.1162109375 L 7395.82861328125 8084.1162109375 L 7278.6875 7966.9755859375 C 7341.19775390625 7904.4638671875 7424.40087890625 7870.0390625 7512.9736328125 7870.0390625 C 7601.5458984375 7870.0390625 7684.75048828125 7904.4638671875 7747.26025390625 7966.9755859375 C 7785.8046875 8005.51953125 7814.15966796875 8052.77734375 7829.2607421875 8103.6396484375 L 7943.27783203125 8103.6396484375 M 7983.49951171875 8651.5615234375 L 7913.50830078125 8581.5703125 L 7824.134765625 8492.1982421875 C 7809.607421875 8504.4697265625 7794.3916015625 8515.8681640625 7778.62890625 8526.2783203125 C 7752.21533203125 8543.724609375 7723.9453125 8558.6064453125 7694.60595703125 8570.5087890625 C 7665.818359375 8582.1875 7635.71630859375 8591.1142578125 7605.13623046875 8597.0400390625 C 7574.85107421875 8602.904296875 7543.8447265625 8605.876953125 7512.97265625 8605.876953125 C 7482.099609375 8605.876953125 7451.09326171875 8602.904296875 7420.814453125 8597.041015625 C 7390.228515625 8591.1142578125 7360.12548828125 8582.1875 7331.33642578125 8570.5078125 C 7302.0048828125 8558.609375 7273.734375 8543.7275390625 7247.3134765625 8526.2763671875 C 7220.22802734375 8508.3896484375 7194.7529296875 8487.5791015625 7171.59912109375 8464.4248046875 C 7138.859375 8431.685546875 7111.12939453125 8394.541015625 7089.17919921875 8354.0244140625 C 7068.06201171875 8315.0478515625 7052.4091796875 8273.1943359375 7042.65576171875 8229.6279296875 L 7031.47216796875 8179.6708984375 L 7082.66552734375 8179.6708984375 L 7196.68603515625 8179.6708984375 L 7227.28466796875 8179.6708984375 L 7235.9912109375 8209.0048828125 C 7249.15185546875 8253.34375 7273.94091796875 8294.6123046875 7307.67822265625 8328.34765625 C 7362.44384765625 8383.1142578125 7435.35205078125 8413.275390625 7512.9736328125 8413.275390625 C 7576.72900390625 8413.275390625 7637.30029296875 8392.9306640625 7687.25341796875 8355.3154296875 L 7601.1240234375 8269.185546875 L 7531.1337890625 8199.1943359375 L 7630.11572265625 8199.1943359375 L 7942.49951171875 8199.1943359375 L 7983.49951171875 8199.1943359375 L 7983.49951171875 8240.1943359375 L 7983.49951171875 8552.5791015625 L 7983.49951171875 8651.5615234375 Z M 7994.4716796875 8144.6396484375 L 7943.27783203125 8144.6396484375 L 7829.2607421875 8144.6396484375 L 7798.66455078125 8144.6396484375 L 7789.95654296875 8115.30908203125 C 7776.79150390625 8070.9677734375 7752.00244140625 8029.69970703125 7718.26904296875 7995.96728515625 C 7663.50390625 7941.2001953125 7590.59521484375 7911.0390625 7512.9736328125 7911.0390625 C 7449.2197265625 7911.0390625 7388.64794921875 7931.3837890625 7338.6943359375 7969 L 7424.81982421875 8055.125 L 7494.8115234375 8125.1162109375 L 7395.82861328125 8125.1162109375 L 7083.4453125 8125.1162109375 L 7042.4453125 8125.1162109375 L 7042.4453125 8084.1162109375 L 7042.4453125 7771.736328125 L 7042.4453125 7672.755859375 L 7112.43603515625 7742.74462890625 L 7201.80908203125 7832.11474609375 C 7216.3359375 7819.84423828125 7231.55029296875 7808.4462890625 7247.31298828125 7798.03515625 C 7273.73193359375 7780.5888671875 7301.99951171875 7765.7080078125 7331.33349609375 7753.8037109375 C 7360.130859375 7742.123046875 7390.23291015625 7733.19775390625 7420.8095703125 7727.2734375 C 7451.083984375 7721.4091796875 7482.09130859375 7718.43603515625 7512.97265625 7718.43603515625 C 7543.8525390625 7718.43603515625 7574.859375 7721.4091796875 7605.1328125 7727.27294921875 C 7635.70458984375 7733.19580078125 7665.80615234375 7742.12109375 7694.60302734375 7753.80126953125 C 7723.93115234375 7765.7001953125 7752.19970703125 7780.58154296875 7778.626953125 7798.03271484375 C 7805.72119140625 7815.92822265625 7831.1943359375 7836.73779296875 7854.34375 7859.8857421875 C 7887.0810546875 7892.623046875 7914.8115234375 7929.7666015625 7936.76416015625 7970.2861328125 C 7957.880859375 8009.2607421875 7973.53369140625 8051.11376953125 7983.28759765625 8094.6826171875 L 7994.4716796875 8144.6396484375 Z" stroke="none"/>
    </g>
  </g>
</svg>
