<svg xmlns="http://www.w3.org/2000/svg" width="1041" height="1041" viewBox="0 0 1041 1041">
  <g id="meat" transform="translate(-6252 13212)">
    <rect id="frame" width="1041" height="1041" transform="translate(6252 -13212)" fill="#fff" opacity="0"/>
    <path id="part_2" data-name="part 2" d="M369.1,91.646,208.262,252.482c23.311,27.989,22.155,69.492-4.128,95.747a71.181,71.181,0,0,1-120.461-62.8,71.181,71.181,0,0,1-62.8-120.461c26.255-26.283,67.758-27.411,95.747-4.128L277.451,0,369.1,91.646Z" transform="translate(6285.584 -12575.172)" fill="#ececec" stroke="#000" stroke-width="41"/>
    <path id="part_1" data-name="part 1" d="M686.771,80.617c45.823,45.823,161.661,242.464,1.266,402.8C576.327,595.1,486.359,588.718,318.809,630.248c-68.721,22.9-158.276,105.462-181.2,128.388-22.925-22.925-14.917-106.591-14.917-106.591S22.925,643.954,0,621.028C22.925,598.1,129.323,497.484,147.928,450.2,198.044,291.293,192.32,210.463,304,98.753,487.295-84.512,640.975,34.821,686.771,80.617Z" transform="translate(6489.084 -13176.988)" fill="#a84d32" stroke="#000" stroke-width="41"/>
  </g>
</svg>
