<svg xmlns="http://www.w3.org/2000/svg" width="1041" height="1041" viewBox="0 0 1041 1041">
  <g id="note" transform="translate(-6252 13212)">
    <rect id="frame" width="1041" height="1041" transform="translate(6252 -13212)" fill="#fff" opacity="0"/>
    <g id="part_3" data-name="part 3" transform="translate(6280 -13185)" fill="#00a2e8">
      <path d="M 493 965.5 C 232.4625701904297 965.5 20.5 753.5374145507813 20.5 493 C 20.5 232.4625701904297 232.4625701904297 20.5 493 20.5 C 753.5374145507813 20.5 965.5 232.4625701904297 965.5 493 C 965.5 753.5374145507813 753.5374145507813 965.5 493 965.5 Z" stroke="none"/>
      <path d="M 493 41 C 243.766357421875 41 41 243.766357421875 41 493 C 41 742.233642578125 243.766357421875 945 493 945 C 742.233642578125 945 945 742.233642578125 945 493 C 945 243.766357421875 742.233642578125 41 493 41 M 493 0 C 765.2763671875 0 986 220.7236938476563 986 493 C 986 765.2763671875 765.2763671875 986 493 986 C 220.7236938476563 986 0 765.2763671875 0 493 C 0 220.7236938476563 220.7236938476563 0 493 0 Z" stroke="none"/>
    </g>
    <g id="part_2" data-name="part 2" transform="translate(6396 -13068)">
      <path d="M 377 733.5 C 180.4252166748047 733.5 20.5 573.5747680664063 20.5 377 C 20.5 180.4252166748047 180.4252166748047 20.5 377 20.5 C 573.5747680664063 20.5 733.5 180.4252166748047 733.5 377 C 733.5 573.5747680664063 573.5747680664063 733.5 377 733.5 Z" stroke="none"/>
      <path d="M 377 41 C 191.7289428710938 41 41 191.7289428710938 41 377 C 41 562.2710571289063 191.7289428710938 713 377 713 C 562.2710571289063 713 713 562.2710571289063 713 377 C 713 191.7289428710938 562.2710571289063 41 377 41 M 377 0 C 585.2113037109375 0 754 168.7886962890625 754 377 C 754 585.2113037109375 585.2113037109375 754 377 754 C 168.7886962890625 754 0 585.2113037109375 0 377 C 0 168.7886962890625 168.7886962890625 0 377 0 Z" stroke="none"/>
    </g>
    <path id="part_1" data-name="part 1" d="M59.435-65.4,37.179-283.839V-448.7H164.947v164.861L143.515-65.4Zm91.5,183.82q-20.608,20.608-49.458,20.608T52.017,118.423Q31.409,97.815,31.409,68.965T52.017,19.506Q72.624-1.1,101.475-1.1t49.458,20.608q20.608,20.608,20.608,49.458T150.933,118.423Z" transform="translate(6671.419 -12536.349)" fill="#00a2e8"/>
  </g>
</svg>
