<svg xmlns="http://www.w3.org/2000/svg" xmlns:xlink="http://www.w3.org/1999/xlink" width="1041" height="1041" viewBox="0 0 1041 1041">
  <defs>
    <clipPath id="clip-path">
      <rect id="frame" width="1041" height="1041" transform="translate(-155.566 -29.834)" fill="#fff" stroke="#000" stroke-width="41"/>
    </clipPath>
  </defs>
  <g id="okhand" transform="translate(155.566 29.834)" clip-path="url(#clip-path)">
    <path id="part_3" data-name="part 3" d="M120.282,323.322,4.5,90.533A66.5,66.5,0,0,1,128.536,42.561l102.39,249.034L336,658.032Z" transform="translate(562.145 42.707) rotate(16)" fill="#de9b36" stroke="#000" stroke-width="41"/>
    <path id="part_2" data-name="part 2" d="M154.146,504.414,142.1,332.127,4.5,90.533A66.5,66.5,0,0,1,128.536,42.561l121.1,253.472L278.6,480.223l22.162,114.014L154.146,504.414Z" transform="matrix(0.998, 0.07, -0.07, 0.998, 405.621, 16.621)" fill="#e5ac26" stroke="#000" stroke-width="41"/>
    <path id="part_1" data-name="part 1" d="M582.084,315.78C530.764,203.492,436.175,36.559,436.175,36.559a66.5,66.5,0,1,0-118.757,59.88L458.142,348.5c.343.581,15.517,70.831,15.517,70.831-28.462-26.27-95.917-59.772-187.12-59.772S152.689,381.5,108.846,419.331s-69.36,97.188-69.36,97.188c-23.577,28.171-26.447,59.119,1.724,82.669a66.562,66.562,0,0,0,93.675-8.29c1.267-1.531,41.382-121.034,151.654-107.193S437.672,551.3,436.175,643.99s-5.8,179.315-149.636,177.254S132.956,684.57,132.93,684.042A66.486,66.486,0,0,0,63.386,620.73C26.766,622.208-1.642,653.547.074,690.246c.343,6.944,9.267,148.908,124.8,245.329,66.745,55.656,122.428,73.9,227.9,59.725,64.292-8.629,163.719-15.751,278.063-41.612s139.611-37.635,158.16-153.056,27.338-254.161-38.617-307.158-67.417-22.511-105.115-57.119C617.8,411.135,603.843,363.391,582.084,315.78Z" transform="translate(-58.105 -8.699)" fill="#ffd746" stroke="#000" stroke-width="41"/>
  </g>
</svg>
