<svg xmlns="http://www.w3.org/2000/svg" width="1041" height="1041" viewBox="0 0 1041 1041">
  <g id="pause" transform="translate(-6252 13212)">
    <rect id="frame" width="1041" height="1041" transform="translate(6252 -13212)" fill="#fff" opacity="0"/>
    <g id="part_2" data-name="part 2" transform="translate(6280 -13184)" fill="#a2a2a2">
      <path d="M 493.0000305175781 965.5 C 232.4626007080078 965.5 20.50003051757813 753.5374145507813 20.50003051757813 493 C 20.50003051757813 232.4625701904297 232.4626007080078 20.5 493.0000305175781 20.5 C 753.5374755859375 20.5 965.5 232.4625701904297 965.5 493 C 965.5 753.5374145507813 753.5374755859375 965.5 493.0000305175781 965.5 Z" stroke="none"/>
      <path d="M 493.0000305175781 41 C 243.766357421875 41 41.00006103515625 243.766357421875 41.00006103515625 493 C 41.00006103515625 742.233642578125 243.766357421875 945 493.0000305175781 945 C 742.2337036132813 945 945 742.233642578125 945 493 C 945 243.766357421875 742.2337036132813 41 493.0000305175781 41 M 493.0000305175781 0 C 765.2765502929688 0 986 220.7236938476563 986 493 C 986 765.2763671875 765.2765502929688 986 493.0000305175781 986 C 220.7236938476563 986 6.103515625e-05 765.2763671875 6.103515625e-05 493 C 6.103515625e-05 220.7236938476563 220.7236938476563 0 493.0000305175781 0 Z" stroke="none"/>
    </g>
    <path id="part_1" data-name="part 1" d="M9,576.595H171.6V7.5H9ZM334.2,7.5V576.595H496.8V7.5Z" transform="translate(6519.659 -12983.55)" stroke="#000" stroke-width="10"/>
  </g>
</svg>
