<svg xmlns="http://www.w3.org/2000/svg" width="1041" height="1041" viewBox="0 0 1041 1041">
  <g id="purplet" transform="translate(-6252 13212)">
    <rect id="frame" width="1041" height="1041" transform="translate(6252 -13212)" fill="#fff" opacity="0"/>
    <path id="part_2" data-name="part 2" d="M449.5,0C697.752,0,899,201.248,899,449.5v9C899,706.752,697.752,908,449.5,908S0,706.752,0,458.5v-9C0,201.248,201.248,0,449.5,0Z" transform="translate(6322 -13146)"/>
    <g id="part_1" data-name="part 1" transform="translate(6278.139 -13163.611)" fill="#6a21ff">
      <path d="M 471.4370727539063 922.374267578125 C 456.0470581054688 922.374267578125 440.5264892578125 921.5908203125 425.3064880371094 920.0455322265625 C 410.3089294433594 918.52197265625 395.2459106445313 916.2230834960938 380.5370788574219 913.2128295898438 C 366.0129089355469 910.2406616210938 351.4780578613281 906.5032348632813 337.3354797363281 902.1043701171875 C 323.3483581542969 897.75439453125 309.4143371582031 892.654541015625 295.9197692871094 886.9464111328125 C 282.5416259765625 881.2880859375 269.2821960449219 874.9008178710938 256.5086364746094 867.9611206054688 C 243.8213500976563 861.0686645507813 231.3120727539063 853.4689331054688 219.3279266357422 845.3732299804688 C 195.445068359375 829.2379760742188 172.9863586425781 810.7078247070313 152.5764923095703 790.2977905273438 C 132.1649169921875 769.8855590820313 113.634635925293 747.4266967773438 97.50077819824219 723.5458374023438 C 89.40306854248047 711.559814453125 81.80420684814453 699.05126953125 74.91520690917969 686.3675537109375 C 67.97477722167969 673.5936889648438 61.58749389648438 660.3346557617188 55.9292106628418 646.9562377929688 C 50.2184944152832 633.4549560546875 45.11835098266602 619.5206909179688 40.77021026611328 605.5401000976563 C 36.37220764160156 591.4008178710938 32.63506698608398 576.865966796875 29.66263771057129 562.3388061523438 C 26.65049362182617 547.6217041015625 24.35163688659668 532.55908203125 22.82963752746582 517.5685424804688 C 21.28378105163574 502.3506774902344 20.50006675720215 486.8302612304688 20.50006675720215 471.4371032714844 C 20.50006675720215 456.0438232421875 21.28378105163574 440.5235290527344 22.82949447631836 425.3076782226563 C 24.35135078430176 410.3175354003906 26.65020942687988 395.2546691894531 29.66249465942383 380.5362548828125 C 32.63235092163086 366.0179748535156 36.36935043334961 351.4833984375 40.77006530761719 337.3343811035156 C 45.11835098266602 323.3535461425781 50.2184944152832 309.4192504882813 55.9290657043457 295.9185180664063 C 61.58749389648438 282.5395202636719 67.97477722167969 269.280517578125 74.91378021240234 256.5092468261719 C 81.80420684814453 243.8238220214844 89.40335083007813 231.3149566650391 97.50106811523438 219.3281097412109 C 113.6326370239258 195.4496765136719 132.1627807617188 172.990966796875 152.5767822265625 152.5759582519531 C 172.9896392822266 132.1639556884766 195.4483489990234 113.6338195800781 219.3283538818359 97.50067138671875 C 231.3060607910156 89.40867614746094 243.8153533935547 81.80910491943359 256.5086364746094 74.91310119628906 C 269.290771484375 67.97024536132813 282.5509338378906 61.5825309753418 295.9190673828125 55.92824554443359 C 309.4129333496094 50.22081756591797 323.3473510742188 45.12081909179688 337.3354797363281 40.76996231079102 C 351.4710693359375 36.37295913696289 366.0061950683594 32.63553237915039 380.5372009277344 29.66153144836426 C 395.2587890625 26.64953231811523 410.32177734375 24.35095977783203 425.3062133789063 22.82967376708984 C 440.521484375 21.2836742401123 456.0406494140625 20.49995994567871 471.4343566894531 20.49995994567871 C 517.3084716796875 20.49995994567871 562.553466796875 27.35967445373535 605.9127807617188 40.88881683349609 C 647.8729248046875 53.98081588745117 687.6643676757813 73.17453002929688 724.1819458007813 97.93653106689453 C 760.2069091796875 122.3648147583008 792.4924926757813 151.8265380859375 820.1416625976563 185.5032501220703 C 844.1607666015625 214.7584381103516 864.3367919921875 246.7801208496094 880.2639770507813 280.8941955566406 L 579.7994995117188 454.4386596679688 L 549.065185546875 472.1903991699219 L 579.7994995117188 489.9421081542969 L 879.7088623046875 663.166015625 C 863.7354736328125 697.1218872070313 843.5482177734375 728.9873046875 819.5526123046875 758.0919799804688 C 791.9000854492188 791.6329345703125 759.6405029296875 820.969970703125 723.669921875 845.2880859375 C 687.204345703125 869.9419555664063 647.4840698242188 889.0501098632813 605.6119384765625 902.0819702148438 C 562.3464965820313 915.5469360351563 517.203369140625 922.374267578125 471.4370727539063 922.374267578125 Z M 288.0217895507813 612.095703125 L 288.0217895507813 632.595703125 L 288.0217895507813 634.7096557617188 C 288.0217895507813 735.8348388671875 370.2930603027344 818.1060791015625 471.418212890625 818.1060791015625 C 572.5433349609375 818.1060791015625 654.8146362304688 735.8348388671875 654.8146362304688 634.7096557617188 L 654.8146362304688 632.595703125 L 654.8146362304688 612.095703125 L 634.3146362304688 612.095703125 L 308.5217895507813 612.095703125 L 288.0217895507813 612.095703125 Z M 273.9726257324219 250.6996765136719 C 201.1782073974609 250.6996765136719 141.9554901123047 309.9942321777344 141.9554901123047 382.8771057128906 C 141.9554901123047 455.7599487304688 201.1782073974609 515.0545043945313 273.9726257324219 515.0545043945313 C 346.7670593261719 515.0545043945313 405.9897766113281 455.7599487304688 405.9897766113281 382.8771057128906 C 405.9897766113281 309.9942321777344 346.7670593261719 250.6996765136719 273.9726257324219 250.6996765136719 Z M 968.5299072265625 657.9878540039063 L 647.471923828125 472.1346435546875 L 968.5299072265625 286.2805480957031 L 968.5299072265625 657.9878540039063 Z M 273.877197265625 460.7552490234375 C 230.1549224853516 460.7552490234375 194.5843505859375 425.1393737792969 194.5843505859375 381.3615417480469 C 194.5843505859375 337.583251953125 230.1549224853516 301.9669494628906 273.877197265625 301.9669494628906 C 317.5989379882813 301.9669494628906 353.1692199707031 337.583251953125 353.1692199707031 381.3615417480469 C 353.1692199707031 425.1393737792969 317.5989379882813 460.7552490234375 273.877197265625 460.7552490234375 Z" stroke="none"/>
      <path d="M 471.4371032714844 901.874267578125 C 515.1357421875 901.874267578125 558.2290649414063 895.3584594726563 599.5200805664063 882.5079345703125 C 639.4772338867188 870.0720825195313 677.3840942382813 851.8357543945313 712.1884155273438 828.304931640625 C 746.5314331054688 805.0872802734375 777.3320922851563 777.0765991210938 803.7354125976563 745.0510864257813 C 822.6301879882813 722.1334228515625 839.0498657226563 697.42578125 852.7783813476563 671.2850952148438 L 569.5462646484375 507.6937561035156 L 508.0779113769531 472.1904296875 L 569.5462646484375 436.6871032714844 L 853.3827514648438 272.7466430664063 C 839.670166015625 246.4441833496094 823.2352905273438 221.5774841308594 804.297607421875 198.5114440917969 C 777.89794921875 166.3565979003906 747.0720825195313 138.2267761230469 712.6769409179688 114.9036026000977 C 677.8231201171875 91.26993560791016 639.8480834960938 72.95176696777344 599.8067626953125 60.45827102661133 C 558.42626953125 47.54676818847656 515.235595703125 41.00010299682617 471.4344177246094 41.00010299682617 C 456.7301025390625 41.00010299682617 441.9080810546875 41.74860382080078 427.3767700195313 43.22493743896484 C 413.07275390625 44.67710494995117 398.6957702636719 46.87093734741211 384.6479187011719 49.74510192871094 C 370.7809143066406 52.58327102661133 356.9114379882813 56.14960479736328 343.4239196777344 60.3451042175293 C 330.0769348144531 64.49643707275391 316.7809143066406 69.36277008056641 303.9050903320313 74.80876922607422 C 291.1470947265625 80.20493316650391 278.4922485351563 86.30110168457031 266.294921875 92.92643737792969 C 254.1780853271484 99.50926971435547 242.2374267578125 106.7634353637695 230.8042602539063 114.4877700805664 C 208.0054168701172 129.8902740478516 186.5625915527344 147.5824432373047 167.07275390625 167.0716094970703 C 147.5812530517578 186.5637664794922 129.8892517089844 208.0064392089844 114.4880905151367 230.8037719726563 C 106.7585906982422 242.2454376220703 99.50492095947266 254.1854400634766 92.9267578125 266.2961120605469 C 86.30442047119141 278.4847717285156 80.20909118652344 291.1376037597656 74.80959320068359 303.9046020507813 C 69.36042022705078 316.7874450683594 64.49391937255859 330.0829467773438 60.34508895874023 343.4227600097656 C 56.14625549316406 356.9227600097656 52.58042144775391 370.791259765625 49.74608993530273 384.6466064453125 C 46.87125778198242 398.6934509277344 44.6772575378418 413.0699462890625 43.22459030151367 427.3796081542969 C 41.74858856201172 441.9096069335938 41.00009155273438 456.7327575683594 41.00009155273438 471.4371032714844 C 41.00009155273438 486.1412658691406 41.74858856201172 500.964599609375 43.22492218017578 515.498291015625 C 44.67742156982422 529.8064575195313 46.87158966064453 544.1826171875 49.74642181396484 558.2291259765625 C 52.58308792114258 572.0916137695313 56.14892196655273 585.9606323242188 60.34542465209961 599.4522705078125 C 64.49391937255859 612.791259765625 69.36042022705078 626.0867919921875 74.81025695800781 638.9712524414063 C 80.20909118652344 651.7366333007813 86.30442047119141 664.3894653320313 92.92958831787109 676.583251953125 C 99.50508880615234 688.6901245117188 106.7582550048828 700.6292724609375 114.4875869750977 712.0697631835938 C 129.8905944824219 734.8690795898438 147.582763671875 756.3119506835938 167.0720825195313 775.80224609375 C 186.5592498779297 795.2892456054688 208.0019226074219 812.9814453125 230.8034210205078 828.3861083984375 C 242.2437591552734 836.1146240234375 254.1845855712891 843.3687744140625 266.294921875 849.94775390625 C 278.4854125976563 856.5706176757813 291.138916015625 862.6660766601563 303.9065856933594 868.0661010742188 C 316.7814331054688 873.5122680664063 330.076416015625 878.3782958984375 343.4241027832031 882.5294189453125 C 356.9195861816406 886.7271118164063 370.7886047363281 890.2932739257813 384.6474304199219 893.1290893554688 C 398.686767578125 896.0022583007813 413.0635986328125 898.1964111328125 427.3772583007813 899.6502685546875 C 441.9117431640625 901.1260986328125 456.735595703125 901.874267578125 471.4371032714844 901.874267578125 M 267.5217590332031 591.5955810546875 L 308.5217590332031 591.5955810546875 L 634.3145751953125 591.5955810546875 L 675.3145751953125 591.5955810546875 L 675.3145751953125 632.5955810546875 L 675.3145751953125 634.7097778320313 C 675.3145751953125 747.1386108398438 583.8471069335938 838.6060791015625 471.4182434082031 838.6060791015625 C 358.9894104003906 838.6060791015625 267.5217590332031 747.1386108398438 267.5217590332031 634.7097778320313 L 267.5217590332031 632.5955810546875 L 267.5217590332031 591.5955810546875 M 273.9725952148438 230.1997680664063 C 358.0709228515625 230.1997680664063 426.48974609375 298.6906127929688 426.48974609375 382.8771057128906 C 426.48974609375 467.0635986328125 358.0709228515625 535.554443359375 273.9725952148438 535.554443359375 C 189.8742523193359 535.554443359375 121.4554214477539 467.0635986328125 121.4554214477539 382.8771057128906 C 121.4554214477539 298.6906127929688 189.8742523193359 230.1997680664063 273.9725952148438 230.1997680664063 M 948.0299072265625 622.4337768554688 L 948.0299072265625 321.8345947265625 L 688.390869140625 472.134521484375 L 948.0299072265625 622.4337768554688 M 273.8772583007813 440.2552795410156 C 306.2952575683594 440.2552795410156 332.6692504882813 413.8356018066406 332.6692504882813 381.3614501953125 C 332.6692504882813 348.8869323730469 306.2952575683594 322.4669494628906 273.8772583007813 322.4669494628906 C 241.4587554931641 322.4669494628906 215.0842590332031 348.8869323730469 215.0842590332031 381.3614501953125 C 215.0842590332031 413.8356018066406 241.4587554931641 440.2552795410156 273.8772583007813 440.2552795410156 M 471.4371032714844 942.874267578125 C 455.3567504882813 942.874267578125 439.1387634277344 942.0552978515625 423.2357482910156 940.4406127929688 C 407.562255859375 938.8486328125 391.8132629394531 936.4454345703125 376.4267578125 933.2964477539063 C 361.2392578125 930.1887817382813 346.0382690429688 926.2800903320313 331.2467651367188 921.6792602539063 C 316.6209106445313 917.130615234375 302.048095703125 911.7972412109375 287.9334106445313 905.8265991210938 C 273.9482421875 899.9117431640625 260.0829162597656 893.23291015625 246.7224273681641 885.9744262695313 C 233.4572601318359 878.7681274414063 220.3794250488281 870.8229370117188 207.8522491455078 862.3602905273438 C 182.8890838623047 845.4951171875 159.4142608642578 826.1270751953125 138.0807495117188 804.7935791015625 C 116.7480926513672 783.4599609375 97.37908935546875 759.9852905273438 80.51409149169922 735.0219116210938 C 72.05125427246094 722.4957885742188 64.10608673095703 709.4179077148438 56.9007568359375 696.1517944335938 C 49.64225769042969 682.7922973632813 42.9632568359375 668.9267578125 37.04859161376953 654.9417724609375 C 31.07792282104492 640.8261108398438 25.74358940124512 626.2532958984375 21.19508934020996 611.6282958984375 C 16.59425735473633 596.8367919921875 12.68642330169678 581.6357421875 9.578756332397461 566.4482421875 C 6.429589748382568 551.0619506835938 4.025756359100342 535.312744140625 2.434589862823486 519.6392822265625 C 0.8190897703170776 503.7362670898438 8.976236858870834e-05 487.5192565917969 8.976236858870834e-05 471.4371032714844 C 8.976236858870834e-05 455.3559265136719 0.8190897703170776 439.137939453125 2.434589862823486 423.2357788085938 C 4.025756359100342 407.5614318847656 6.429589748382568 391.8132629394531 9.578756332397461 376.4259338378906 C 12.68558979034424 361.2384338378906 16.59425735473633 346.0382690429688 21.19508934020996 331.2459411621094 C 25.74358940124512 316.6209411621094 31.07792282104492 302.048095703125 37.04859161376953 287.9324340820313 C 42.9632568359375 273.9474487304688 49.64225769042969 260.0819396972656 56.9007568359375 246.7224426269531 C 64.10608673095703 233.457275390625 72.05125427246094 220.3794403076172 80.51409149169922 207.8522644042969 C 97.37908935546875 182.8881072998047 116.7480926513672 159.4142761230469 138.0807495117188 138.0807647705078 C 159.4152526855469 116.7471008300781 182.8899230957031 97.37827301025391 207.8522491455078 80.51410675048828 C 220.3785858154297 72.05126953125 233.4564208984375 64.10693359375 246.7224273681641 56.8997688293457 C 260.0837707519531 49.64226913452148 273.9492492675781 42.96243667602539 287.9334106445313 37.04760360717773 C 302.0472412109375 31.07793617248535 316.6199340820313 25.74460411071777 331.2467651367188 21.19510269165039 C 346.0374145507813 16.59427070617676 361.2384338378906 12.68643665313721 376.4267578125 9.577770233154297 C 391.8140869140625 6.429603099822998 407.562255859375 4.025769710540771 423.2357482910156 2.434603214263916 C 439.1360778808594 0.8191033005714417 455.3540954589844 0.0001032714862958528 471.4344177246094 0.0001032714862958528 C 471.4362487792969 0.0001032714862958528 471.4352416992188 0.0001032714862958528 471.4371032714844 0.0001032714862958528 C 519.3827514648438 0.0001032714862958528 566.681396484375 7.173103332519531 612.0189208984375 21.31926918029785 C 655.8975830078125 35.01010513305664 697.5054321289063 55.0791015625 735.6870727539063 80.96943664550781 C 773.3412475585938 106.5024337768555 807.0867309570313 137.2959442138672 835.9857788085938 172.4949340820313 C 865.0953979492188 207.950439453125 888.8067626953125 247.2957763671875 906.4602661132813 289.437255859375 L 590.0526123046875 472.1904296875 L 905.9507446289063 654.6492919921875 C 888.2235717773438 696.6377563476563 864.4771118164063 735.8282470703125 835.3701171875 771.1326293945313 C 806.4684448242188 806.1885986328125 772.7499389648438 836.8524169921875 735.1514282226563 862.2711181640625 C 697.02490234375 888.048095703125 655.4907836914063 908.028076171875 611.7039184570313 921.65576171875 C 566.4635620117188 935.7354125976563 519.271240234375 942.874267578125 471.4371032714844 942.874267578125 Z M 308.5217590332031 632.5955810546875 L 308.5217590332031 634.7097778320313 C 308.5217590332031 724.5314331054688 381.5972595214844 797.6060791015625 471.4182434082031 797.6060791015625 C 561.2399291992188 797.6060791015625 634.3145751953125 724.5314331054688 634.3145751953125 634.7097778320313 L 634.3145751953125 632.5955810546875 L 308.5217590332031 632.5955810546875 Z M 273.9725952148438 271.1997680664063 C 212.4819183349609 271.1997680664063 162.4554290771484 321.2982788085938 162.4554290771484 382.8771057128906 C 162.4554290771484 444.4561157226563 212.4819183349609 494.554443359375 273.9725952148438 494.554443359375 C 335.4632568359375 494.554443359375 385.48974609375 444.4561157226563 385.48974609375 382.8771057128906 C 385.48974609375 321.2982788085938 335.4632568359375 271.1997680664063 273.9725952148438 271.1997680664063 Z M 989.0299072265625 693.541748046875 L 606.5532836914063 472.1346130371094 L 989.0299072265625 250.7264404296875 L 989.0299072265625 693.541748046875 Z M 273.8772583007813 481.2552795410156 C 218.7630920410156 481.2552795410156 174.0842590332031 436.5316162109375 174.0842590332031 381.3614501953125 C 174.0842590332031 326.1914367675781 218.7630920410156 281.4669494628906 273.8772583007813 281.4669494628906 C 328.9906005859375 281.4669494628906 373.6692504882813 326.1914367675781 373.6692504882813 381.3614501953125 C 373.6692504882813 436.5316162109375 328.9906005859375 481.2552795410156 273.8772583007813 481.2552795410156 Z" stroke="none"/>
    </g>
  </g>
</svg>
