<svg xmlns="http://www.w3.org/2000/svg" width="1041" height="1042.593" viewBox="0 0 1041 1042.593">
  <g id="question" transform="translate(-6252 13212.577)">
    <rect id="frame" width="1041" height="1041" transform="translate(6252 -13212)" fill="#fff" opacity="0"/>
    <path id="question-2" data-name="question" d="M322.066,0C177.169,0,77.718,80.034,4.036,195.928c-13.366,21.024-18.645,26.8,0,42.274L132.3,338.154s10.665-14.982,25.407-35.2c45.472-62.357,79.2-98.26,150.231-98.26,55.847,0,124.923,39.343,124.923,98.622,0,44.813-33.8,67.828-88.938,101.668-64.3,39.464-149.4,88.577-149.4,211.438v67.14H379.652c24.062,0,33.568-2.352,33.568-28.69V624.4c0-85.167,227.4-88.714,227.4-319.182C640.624,131.657,476.152,0,322.066,0ZM303.874,742.1c-69.338,0-125.749,55.165-125.749,131.064s56.411,128.428,125.749,128.428,125.749-51.214,125.749-127.113S373.212,742.1,303.874,742.1Z" transform="translate(6451.773 -13192.077)" fill="#ececec" stroke="#000" stroke-width="41"/>
  </g>
</svg>
