<svg xmlns="http://www.w3.org/2000/svg" width="1041" height="1041" viewBox="0 0 1041 1041">
  <g id="queue_added" data-name="queue added" transform="translate(-6252 13212)">
    <rect id="frame" width="1041" height="1041" transform="translate(6252 -13212)" fill="#fff" opacity="0"/>
    <g id="part_3" data-name="part 3" transform="translate(6321 -13042)" fill="#0dc5a0">
      <path d="M 701 783.5 L 103 783.5 C 57.50929260253906 783.5 20.5 746.49072265625 20.5 701 L 20.5 103 C 20.5 57.50929260253906 57.50929260253906 20.5 103 20.5 L 701 20.5 C 746.49072265625 20.5 783.5 57.50929260253906 783.5 103 L 783.5 701 C 783.5 746.49072265625 746.49072265625 783.5 701 783.5 Z" stroke="none"/>
      <path d="M 103 41 C 68.81317138671875 41 41 68.81317138671875 41 103 L 41 701 C 41 735.1868896484375 68.81317138671875 763 103 763 L 701 763 C 735.1868896484375 763 763 735.1868896484375 763 701 L 763 103 C 763 68.81317138671875 735.1868896484375 41 701 41 L 103 41 M 103 0 L 701 0 C 757.88525390625 0 804 46.11468505859375 804 103 L 804 701 C 804 757.88525390625 757.88525390625 804 701 804 L 103 804 C 46.11468505859375 804 0 757.88525390625 0 701 L 0 103 C 0 46.11468505859375 46.11468505859375 0 103 0 Z" stroke="none"/>
    </g>
    <path id="part_2" data-name="part 2" d="M835.482,3H269.034c-51.924,0-94.408,42.484-94.408,94.408V663.857c0,51.924,42.484,94.408,94.408,94.408H835.482c51.924,0,94.408-42.484,94.408-94.408V97.408C929.89,45.484,887.407,3,835.482,3Z" transform="translate(6294.466 -13148.842)" fill="#0dc5a0" stroke="#000" stroke-width="41"/>
    <path id="part_1" data-name="part 1" d="M453.634,0,201.615,252.019,84.006,134.41,0,218.416,201.615,420.032,537.641,84.006Z" transform="translate(6573.385 -12942.865) rotate(-8)"/>
  </g>
</svg>
