<svg xmlns="http://www.w3.org/2000/svg" width="1041" height="1041" viewBox="0 0 1041 1041">
  <g id="star" transform="translate(-6252 13212)">
    <rect id="frame" width="1041" height="1041" transform="translate(6252 -13212)" fill="#fff" opacity="0"/>
    <path id="star-2" data-name="star" d="M958.132,322.742H631.89L532.754,26.884c-4.879-14.416-18.408-23.509-33.711-23.509s-28.832,9.093-33.711,23.509L366.2,322.742H37.735A35.589,35.589,0,0,0,2.25,358.227a26.079,26.079,0,0,0,.665,5.988c.444,7.762,3.992,16.412,14.859,25.061L285.91,578.235,183,877.42a35.587,35.587,0,0,0,12.2,39.921c6.432,4.657,12.42,8.649,19.96,8.649,7.319,0,15.968-3.77,22.178-7.984l261.7-186.519,261.7,186.519c6.21,4.436,14.859,7.984,22.178,7.984,7.541,0,13.529-3.77,19.739-8.649a35.152,35.152,0,0,0,12.2-39.921L711.954,578.235,977.871,387.5l6.432-5.545c5.766-6.21,11.533-14.638,11.533-23.731C995.835,338.71,977.649,322.742,958.132,322.742Z" transform="translate(6272.995 -13156.486)" fill="#ffd746" stroke="#000" stroke-width="41"/>
  </g>
</svg>
