<svg xmlns="http://www.w3.org/2000/svg" width="1041" height="1041" viewBox="0 0 1041 1041">
  <g id="toggle_on" data-name="toggle on" transform="translate(-6252 13212)">
    <rect id="frame" width="1041" height="1041" transform="translate(6252 -13212)" fill="#fff" opacity="0"/>
    <g id="part_2" data-name="part 2" transform="translate(6264 -12970)" fill="#0dc5a0">
      <path d="M 738.5 536.5 L 278.5 536.5 C 136.23828125 536.5 20.5 420.76171875 20.5 278.5 C 20.5 136.23828125 136.23828125 20.5 278.5 20.5 L 738.5 20.5 C 880.76171875 20.5 996.5 136.23828125 996.5 278.5 C 996.5 420.76171875 880.76171875 536.5 738.5 536.5 Z" stroke="none"/>
      <path d="M 278.5 41 C 147.5419921875 41 41 147.5419921875 41 278.5 C 41 409.4580078125 147.5419921875 516 278.5 516 L 738.5 516 C 869.4580078125 516 976 409.4580078125 976 278.5 C 976 147.5419921875 869.4580078125 41 738.5 41 L 278.5 41 M 278.5 0 L 738.5 0 C 892.3113403320313 0 1017 124.6886596679688 1017 278.5 C 1017 432.3113403320313 892.3113403320313 557 738.5 557 L 278.5 557 C 124.6886596679688 557 0 432.3113403320313 0 278.5 C 0 124.6886596679688 124.6886596679688 0 278.5 0 Z" stroke="none"/>
    </g>
    <g id="part_1" data-name="part 1" transform="translate(6642 -13012)" fill="#ececec">
      <path d="M 319.5 620.5 C 154.6307983398438 620.5 20.5 485.9205932617188 20.5 320.5 C 20.5 155.0794067382813 154.6307983398438 20.5 319.5 20.5 C 484.3692016601563 20.5 618.5 155.0794067382813 618.5 320.5 C 618.5 485.9205932617188 484.3692016601563 620.5 319.5 620.5 Z" stroke="none"/>
      <path d="M 319.5 41 C 165.9346008300781 41 41 166.3831787109375 41 320.5 C 41 474.6168212890625 165.9346008300781 600 319.5 600 C 473.0654296875 600 598 474.6168212890625 598 320.5 C 598 166.3831787109375 473.0654296875 41 319.5 41 M 319.5 0 C 495.9549560546875 0 639 143.4927062988281 639 320.5 C 639 497.5072937011719 495.9549560546875 641 319.5 641 C 143.0450439453125 641 0 497.5072937011719 0 320.5 C 0 143.4927062988281 143.0450439453125 0 319.5 0 Z" stroke="none"/>
    </g>
  </g>
</svg>
