<svg xmlns="http://www.w3.org/2000/svg" width="1041" height="1041" viewBox="0 0 1041 1041">
  <g id="wrong" transform="translate(-4989 14675)">
    <rect id="frame" width="1041" height="1041" transform="translate(4989 -14675)" fill="#fff" opacity="0"/>
    <g id="wrong-2" data-name="wrong" transform="translate(4997.255 -14667.004)" fill="#e20000">
      <path d="M 200.0619201660156 999.7391967773438 L 26.58575439453125 826.2630004882813 L 325.165283203125 527.683349609375 L 339.6609802246094 513.1876220703125 L 325.165283203125 498.6919555664063 L 25.26316070556641 198.7898254394531 L 198.9845886230469 25.06924057006836 L 498.8863830566406 324.9708862304688 L 513.382080078125 339.4665832519531 L 527.8777465820313 324.9708862304688 L 825.2892456054688 27.55941581726074 L 998.7655029296875 201.0357208251953 L 701.3538818359375 498.4471740722656 L 686.8582153320313 512.94287109375 L 701.3538818359375 527.4385986328125 L 997.74755859375 823.8322143554688 L 824.0269775390625 997.553466796875 L 527.6329956054688 701.15966796875 L 513.1372680664063 686.6639404296875 L 498.6416015625 701.15966796875 L 200.0619201660156 999.7391967773438 Z" stroke="none"/>
      <path d="M 200.06201171875 970.7479248046875 L 484.1458740234375 686.6639404296875 L 513.13720703125 657.6724243164063 L 542.1285400390625 686.6639404296875 L 824.0269165039063 968.5621337890625 L 968.7562255859375 823.8321533203125 L 686.8583374023438 541.9342651367188 L 657.8668823242188 512.9429321289063 L 686.8583374023438 483.9515686035156 L 969.7742919921875 201.0356750488281 L 825.289306640625 56.55081558227539 L 542.3733520507813 339.4665832519531 L 513.3820190429688 368.4579162597656 L 484.3906860351563 339.4665832519531 L 198.9845733642578 54.06061172485352 L 54.25465393066406 198.7898864746094 L 339.6610412597656 484.1964111328125 L 368.6525268554688 513.187744140625 L 339.6610412597656 542.1790771484375 L 55.57695770263672 826.2630004882813 L 200.06201171875 970.7479248046875 M 200.0618591308594 1025.002563476563 C 197.7585296630859 1025.002563476563 195.4552001953125 1024.1240234375 193.6980285644531 1022.366760253906 L 3.958193063735962 832.6268920898438 C 0.4436930418014526 829.1124267578125 0.4436930418014526 823.41357421875 3.958193063735962 819.8991088867188 L 310.6697082519531 513.187744140625 L 2.636193037033081 205.1540832519531 C -0.8784736394882202 201.6387481689453 -0.8784736394882202 195.9407501220703 2.636193037033081 192.4254150390625 L 192.6206970214844 2.441749811172485 C 194.3779449462891 0.6839998364448547 196.6812744140625 -0.1948751658201218 198.9846038818359 -0.1948751658201218 C 201.2879486083984 -0.1948751658201218 203.5912780761719 0.6839998364448547 205.3485260009766 2.441749811172485 L 513.3820190429688 310.4752502441406 L 818.9253540039063 4.932083129882813 C 820.6826171875 3.174833059310913 822.9859619140625 2.296208143234253 825.289306640625 2.296208143234253 C 827.5925903320313 2.296208143234253 829.8959350585938 3.174833059310913 831.6531982421875 4.932083129882813 L 1021.393005371094 194.6717529296875 C 1024.907470703125 198.1862487792969 1024.907470703125 203.8850860595703 1021.393005371094 207.3995819091797 L 715.8496704101563 512.9429321289063 L 1020.375 817.46826171875 C 1023.890502929688 820.9827270507813 1023.890502929688 826.6815795898438 1020.375 830.1961059570313 L 830.391357421875 1020.180603027344 C 828.6336059570313 1021.937805175781 826.3302612304688 1022.816467285156 824.0269165039063 1022.816467285156 C 821.7236328125 1022.816467285156 819.4202880859375 1021.937805175781 817.6625366210938 1020.180603027344 L 513.13720703125 715.6552734375 L 206.4258575439453 1022.366760253906 C 204.6685333251953 1024.1240234375 202.3651885986328 1025.002563476563 200.0618591308594 1025.002563476563 Z" stroke="none"/>
    </g>
  </g>
</svg>
